<?xml version="1.0" encoding="UTF-8"?>
<svg width="469px" height="512px" viewBox="0 0 469 512" version="1.1" xmlns="http://www.w3.org/2000/svg" xmlns:xlink="http://www.w3.org/1999/xlink">
    <title>riverbend_logo</title>
    <g id="Page-1" stroke="none" stroke-width="1" fill="none" fill-rule="evenodd">
        <g id="Artboard" transform="translate(-18.000000, -4245.000000)">
            <g id="riverbend_logo" transform="translate(18.000000, 4245.000000)">
                <path d="M467.733633,351.89253 C466.933633,379.79253 457.053633,398.13253 433.983633,411.36253 C378.653633,443.07253 324.573633,477.31253 267.463633,505.38253 C249.603633,514.16253 220.073633,513.82253 202.083633,505.01253 C144.013633,476.55253 88.7836327,442.27253 32.5536327,410.07253 C10.4636327,397.42253 -0.226367319,378.40253 0,352.60253 C0.563632681,288.73253 0.993632681,224.86253 0.513632681,160.99253 C0.313632681,134.68253 12.0536327,116.62253 33.9236327,104.19253 C88.4536327,73.1725303 143.303633,42.7025303 197.683633,11.4225303 C223.833633,-3.62746974 248.203633,-4.11746974 274.773633,11.8125303 C325.113633,41.9825303 376.153633,71.0525303 427.783633,98.9525303 C455.593633,113.98253 468.113633,133.25253 468.233633,166.49253 C468.343633,199.59253 468.613633,321.09253 467.733633,351.89253 Z" id="Path" fill="#1D252C" fill-rule="nonzero"></path>
                <g id="Group" transform="translate(33.113633, 254.602530)" fill="#97D1DC" fill-rule="nonzero">
                    <path d="M362.88,15.92 C364.69,15.82 366.51,15.73 368.32,15.63 C364.61,15.42 360.91,15.22 357.2,15.04 C347.33,14.55 337.47,14.14 327.6,13.8 C313.85,13.33 300.1,12.99 286.36,12.71 C259.04,12.12 231.72,11.89 204.4,11.89 C177.08,11.9 149.76,12.13 122.44,12.72 C104,13.09 85.56,13.59 67.12,14.34 C58.24,14.7 49.36,15.12 40.47,15.63 C43.77,15.82 47.07,15.99 50.36,16.16 C74.38,17.37 98.41,18.06 122.43,18.54 C149.75,19.14 177.07,19.36 204.39,19.37 C231.71,19.37 259.03,19.14 286.35,18.55 C308.38,18.11 330.41,17.49 352.44,16.45 C355.93,16.28 359.41,16.1 362.88,15.92 Z" id="Path"></path>
                    <path d="M264.73,24.77 C244.62,24.18 224.51,23.95 204.41,23.95 C184.3,23.96 164.19,24.19 144.09,24.78 C123.98,25.33 103.87,26.14 83.77,27.69 C103.88,29.24 123.99,30.05 144.09,30.6 C164.2,31.2 184.31,31.42 204.41,31.43 C224.52,31.43 244.63,31.2 264.73,30.61 C284.84,30.06 304.95,29.25 325.05,27.69 C304.94,26.13 284.83,25.32 264.73,24.77 Z" id="Path"></path>
                    <path d="M205.45,35.63 C195.22,35.64 184.99,35.87 174.76,36.46 C164.53,37.01 154.3,37.82 144.07,39.37 C154.3,40.92 164.53,41.73 174.76,42.28 C184.99,42.88 195.22,43.1 205.45,43.11 C215.68,43.11 225.91,42.88 236.14,42.29 C246.37,41.74 256.6,40.93 266.83,39.37 C256.6,37.81 246.37,37 236.14,36.45 C225.91,35.85 215.68,35.63 205.45,35.63 Z" id="Path"></path>
                    <path d="M394.63,4.03 C396.85,3.93 399.07,3.84 401.29,3.74 C396.75,3.53 392.22,3.33 387.68,3.15 C375.6,2.66 363.53,2.25 351.45,1.91 C334.62,1.44 317.79,1.1 300.97,0.82 C267.53,0.23 234.09,0 200.65,0 C167.21,0.01 133.77,0.24 100.33,0.83 C77.76,1.2 55.19,1.7 32.62,2.45 C21.75,2.81 10.88,3.23 -7.10542736e-15,3.74 C4.04,3.93 8.07,4.1 12.11,4.27 C41.51,5.48 70.92,6.17 100.32,6.65 C133.76,7.25 167.2,7.47 200.64,7.48 C234.08,7.48 267.52,7.25 300.96,6.66 C327.92,6.22 354.89,5.6 381.85,4.56 C386.12,4.39 390.38,4.21 394.63,4.03 Z" id="Path"></path>
                </g>
                <g id="Group" transform="translate(150.452042, 405.442530)" fill="#97D1DC" fill-rule="nonzero">
                    <path d="M7.581591,14.35 C7.621591,16.11 7.581591,17.83 7.551591,19.59 L7.511591,21.74 C7.471591,22.65 7.371591,23.11 7.021591,23.78 C6.041591,25.08 5.191591,25.15 3.851591,25.15 C3.181591,25.15 2.551591,25.04 1.881591,24.87 C-0.338408996,23.74 0.0215910037,20.44 0.0215910037,18.26 C0.0215910037,17.1 0.0615910037,14.64 0.0915910037,13.79 C0.0915910037,13.51 0.651591004,13.54 1.001591,13.54 C1.421591,13.54 2.271591,13.51 2.271591,13.79 L2.271591,13.82 C2.271591,14.31 2.241591,17.09 2.241591,18.46 C2.241591,19.37 2.101591,20.89 2.421591,22.36 C2.531591,22.78 2.951591,23.17 3.761591,23.17 C5.101591,23.17 5.411591,22.43 5.411591,21.41 C5.411591,21.09 5.371591,20.74 5.411591,17.08 C5.411591,12.3 5.451591,7.55 5.371591,2.31 C5.261591,2.31 4.771591,2.34 3.681591,2.34 C3.611591,2.34 1.641591,2.31 1.571591,2.31 C1.321591,2.27 1.181591,2.2 1.181591,1.85 C1.181591,1.57 1.141591,1.25 1.141591,1 C1.141591,0.05 1.701591,0.37 2.411591,0.26 L7.371591,0.26 C7.481591,0.26 7.581591,0.37 7.621591,0.47 C7.621591,2.97 7.661591,5.5 7.661591,8.46 C7.651591,10.94 7.581591,12.07 7.581591,14.35 Z" id="Path"></path>
                    <path d="M21.641591,3.49 C21.671591,7.99 21.641591,11.3 21.641591,13.73 C21.671591,19.75 21.531591,20.55 21.531591,21.36 C21.531591,23.96 20.511591,24.7 18.721591,25.09 C18.401591,25.16 18.051591,25.16 17.741591,25.16 C16.331591,25.16 14.051591,24.6 14.051591,22.38 C14.011591,17.95 13.981591,16.12 13.981591,14.36 L13.981591,4.13 C13.981591,1.49 15.001591,0.00990877325 17.781591,0.00990877325 C19.571591,7.32018612e-14 21.641591,0.81 21.641591,3.49 Z M19.421591,14.32 C19.421591,11.19 19.461591,8.02 19.461591,4.75 C19.461591,4.33 19.461591,3.87 19.461591,3.34 C19.461591,2.25 18.581591,2.07 17.811591,2.07 C16.581591,2.07 16.231591,2.49 16.191591,3.76 L16.191591,5.17 L16.231591,12.03 L16.191591,17.1 C16.191591,18.3 16.231591,19.56 16.231591,20.76 L16.231591,21.96 C16.231591,22.87 16.901591,23.23 17.741591,23.23 C18.721591,23.23 19.321591,22.49 19.321591,21.37 L19.421591,14.32 Z" id="Shape"></path>
                    <path d="M35.491591,16.96 C35.491591,18.44 35.561591,19.74 35.561591,21.29 C35.561591,22.45 35.601591,23.47 35.491591,24.67 C35.491591,24.95 34.931591,25.09 34.511591,25.09 C33.491591,25.09 33.311591,25.06 33.311591,24.35 C33.311591,24 33.351591,23.4 33.351591,23.08 C33.351591,20.13 33.391591,17.17 33.391591,13.79 L33.391591,13.58 C32.371591,13.58 31.351591,13.54 30.221591,13.58 C30.221591,14.56 30.261591,15.51 30.261591,23.74 C30.261591,24.02 30.301591,24.2 30.301591,24.48 C30.301591,24.94 29.841591,25.01 29.561591,25.01 C28.931591,25.01 28.471591,25.08 28.221591,24.9 C28.011591,24.76 28.041591,24.48 28.041591,24.09 C28.041591,21.14 28.001591,18.18 28.001591,14.59 C28.111591,11.5 28.041591,8.36 28.041591,5.02 C28.041591,3.93 28.081591,2.98 28.081591,1.82 L28.081591,0.52 C28.081591,0.24 28.821591,0.24 29.351591,0.24 C29.631591,0.24 30.261591,0.27 30.261591,0.52 L30.261591,1.01 C30.261591,1.01 30.221591,2.49 30.221591,4.77 C30.221591,9.31 30.191591,9.94 30.191591,10.57 C30.191591,10.82 30.191591,11.1 30.221591,11.38 L30.221591,11.49 C30.781591,11.49 31.381591,11.45 31.941591,11.45 C32.401591,11.45 32.921591,11.45 33.421591,11.42 L33.421591,10.79 L33.451591,7.27 C33.451591,5.23 33.421591,3.15 33.381591,0.97 C33.381591,0.41 33.491591,0.3 34.011591,0.23 L34.961591,0.23 C35.211591,0.23 35.561591,0.3 35.561591,0.86 L35.561591,4.55 L35.561591,7.5 C35.561591,10.45 35.491591,13.41 35.491591,16.96 Z" id="Path"></path>
                    <path d="M49.631591,25.01 L48.221591,25.01 C48.151591,24.94 48.081591,25.04 48.011591,24.8 C46.431591,19.28 45.411591,14.6 44.211591,9.15 L44.171591,9.15 C44.031591,11.93 44.101591,14.74 44.101591,18.12 L44.101591,22.02 C44.101591,24.84 44.311591,25.05 43.181591,25.05 C43.151591,25.05 41.911591,25.16 41.911591,24.8 C41.911591,17.63 42.021591,10.41 42.021591,1.45 C42.021591,1.27 41.981591,1.06 42.021591,0.92 L42.021591,0.85 C42.021591,0.64 42.051591,0.32 42.341591,0.32 L43.781591,0.32 C43.961591,0.32 44.061591,0.46 44.171591,0.67 C44.351591,1.23 44.451591,1.52 44.521591,1.8 C45.191591,5.39 45.581591,6.55 46.171591,9.15 L46.941591,12.67 C47.191591,13.83 47.541591,14.99 47.821591,16.15 L47.891591,16.15 C47.961591,12.25 47.821591,8.31 47.891591,3.84 C47.891591,2.93 47.851591,1.73 47.851591,0.67 C47.851591,0.35 48.101591,0.32 48.341591,0.32 C50.031591,0.32 50.061591,0.29 50.061591,0.6 L50.061591,3.48 C50.061591,5.45 49.991591,7.46 49.991591,9.42 C49.991591,11.95 49.951591,14.49 49.881591,17.09 L49.881591,23.98 C49.881591,24.09 49.911591,24.23 49.881591,24.33 C49.911591,24.59 49.871591,25.01 49.631591,25.01 Z" id="Path"></path>
                    <path d="M64.041591,16.36 C64.041591,17.8 64.041591,19.28 63.971591,22.16 C63.971591,23.67 62.671591,24.87 61.191591,25.08 C60.911591,25.15 60.631591,25.15 60.381591,25.15 C59.781591,25.15 59.221591,25.15 58.371591,24.94 C56.751591,24.13 56.291591,22.76 56.291591,20.93 C56.291591,19.95 56.331591,18.96 56.331591,17.87 C56.331591,17.06 56.791591,16.99 57.561591,16.99 C57.881591,16.99 58.231591,17.06 58.511591,17.2 C58.691591,17.41 58.621591,19.1 58.621591,19.66 C58.621591,21.07 58.091591,23.18 60.241591,23.18 C61.441591,23.18 61.791591,22.27 61.791591,21.46 C61.971591,19.84 61.751591,18.58 61.831591,16.5 C61.761591,14.39 59.441591,13.62 58.171591,12.17 C57.191591,11.22 56.241591,10.09 56.241591,8.2 C56.241591,6.55 56.241591,4.86 56.281591,2.99 C56.321591,2.36 56.601591,1.69 57.051591,1.2 C57.891591,0.29 58.841591,5.68434189e-14 60.181591,5.68434189e-14 C61.621591,5.68434189e-14 62.921591,0.6 63.661591,2.04 C63.911591,2.89 63.871591,3.9 63.871591,4.89 L63.871591,7.77 C63.871591,8.02 62.991591,8.09 62.531591,8.09 C62.211591,8.09 61.931591,8.02 61.721591,7.77 C61.721591,6.65 61.681591,5.41 61.681591,4.43 C61.681591,3.2 61.681591,2 59.991591,2 C59.531591,2 58.551591,2.25 58.551591,2.95 C58.551591,3.51 58.551591,4 58.551591,4.92 C58.551591,6.54 58.511591,6.96 58.511591,7.35 L58.551591,7.98 C58.551591,10.3 61.081591,11.78 62.661591,13.19 C63.481591,13.97 64.041591,15.09 64.041591,16.36 Z" id="Path"></path>
                    <path d="M76.591591,2.04 C76.591591,2.11 76.551591,2.18 76.521591,2.22 C76.481591,2.26 76.451591,2.29 76.381591,2.29 C76.241591,2.33 76.131591,2.33 75.081591,2.29 L73.921591,2.33 C74.031591,6.06 73.881591,9.82 73.921591,13.8 C73.921591,14.75 73.961591,16.05 73.961591,23.75 C73.961591,24.03 73.991591,24.21 73.991591,24.49 C73.991591,24.95 73.531591,25.02 73.251591,25.02 C72.621591,25.02 72.161591,25.09 71.911591,24.91 C71.701591,24.77 71.731591,24.49 71.731591,24.1 C71.731591,21.15 71.701591,18.19 71.701591,14.6 C71.811591,11.51 71.731591,8.37 71.731591,5.03 C71.731591,3.8 71.771591,3.69 71.771591,3.24 L71.731591,2.33 L69.441591,2.33 C69.091591,2.33 69.161591,1.77 69.161591,1.48 L69.161591,0.78 C69.161591,0.54 69.271591,0.43 69.411591,0.36 C69.591591,0.29 69.801591,0.29 70.011591,0.29 L71.421591,0.29 L74.411591,0.29 L75.991591,0.29 C76.171591,0.29 76.551591,0.18 76.591591,0.5 C76.701591,1.17 76.591591,1.59 76.591591,2.04 Z" id="Path"></path>
                    <path d="M89.601591,3.49 C89.631591,7.99 89.601591,11.3 89.601591,13.73 C89.631591,19.75 89.491591,20.55 89.491591,21.36 C89.491591,23.96 88.471591,24.7 86.681591,25.09 C86.361591,25.16 86.011591,25.16 85.701591,25.16 C84.291591,25.16 82.011591,24.6 82.011591,22.38 C81.971591,17.95 81.941591,16.12 81.941591,14.36 L81.941591,4.13 C81.941591,1.49 82.961591,0.00990877325 85.741591,0.00990877325 C87.521591,7.32018612e-14 89.601591,0.81 89.601591,3.49 Z M87.391591,14.32 C87.391591,11.19 87.421591,8.02 87.421591,4.75 C87.421591,4.33 87.421591,3.87 87.421591,3.34 C87.421591,2.25 86.541591,2.07 85.771591,2.07 C84.541591,2.07 84.191591,2.49 84.151591,3.76 L84.151591,5.17 L84.191591,12.03 L84.151591,17.1 C84.151591,18.3 84.191591,19.56 84.191591,20.76 L84.191591,21.96 C84.191591,22.87 84.861591,23.23 85.701591,23.23 C86.681591,23.23 87.281591,22.49 87.281591,21.37 L87.391591,14.32 Z" id="Shape"></path>
                    <path d="M108.521591,1.52 C108.381591,3.63 108.171591,5.78 107.361591,12 L106.551591,18.19 L106.061591,21.99 C105.881591,23.43 105.711591,24.73 105.711591,24.73 C105.571591,24.94 105.501591,24.94 105.461591,24.94 C105.461591,24.94 105.351591,24.97 105.221591,24.97 L104.091591,24.97 C103.911591,24.94 103.841591,24.9 103.701591,24.76 C103.661591,24.72 103.661591,24.65 103.631591,24.58 C103.421591,23.91 103.351591,22.36 103.281591,21.94 L102.791591,17.37 C102.791591,17.3 102.751591,17.19 102.651591,16.14 C102.651591,16.07 102.581591,15.96 102.441591,14.17 L101.841591,9.42 L101.811591,9.42 L101.281591,13.89 L100.611591,19.13 L100.051591,24.37 C100.021591,24.4 100.021591,24.48 100.021591,24.51 C100.021591,24.58 99.981591,24.62 99.981591,24.65 C99.951591,24.83 99.871591,24.93 99.841591,24.93 L99.591591,24.93 C99.061591,24.89 98.571591,25 98.041591,24.89 C98.001591,24.86 97.971591,24.82 97.971591,24.75 C97.831591,24.4 97.761591,23.38 97.481591,21.02 L96.671591,14.2 C96.491591,12.83 96.281591,11.6 96.141591,10.47 C95.291591,3.15 95.231591,1.54 95.121591,1.01 L95.121591,0.87 C95.051591,0.59 95.051591,0.34 95.861591,0.24 L96.321591,0.24 C96.741591,0.24 97.161591,0.31 97.271591,0.59 C97.271591,0.66 97.311591,0.77 97.311591,0.84 C97.311591,0.84 97.341591,1.58 97.451591,2.56 L97.801591,5.69 L98.291591,10.47 L98.921591,15.25 L99.031591,15.25 L99.941591,8.18 L100.641591,1.81 C100.711591,1 100.711591,0.54 100.881591,0.37 C101.061591,0.16 101.341591,0.19 101.861591,0.19 C102.211591,0.19 102.881591,0.16 102.881591,0.47 C102.951591,0.93 102.991591,1.21 102.991591,1.53 L103.621591,6.88 L104.291591,12.79 L104.611591,15.25 L104.721591,15.25 L105.071591,12.58 L105.631591,8.32 L106.261591,1.92 L106.331591,1.29 C106.471591,0.48 106.301591,0.48 106.651591,0.31 C107.141591,0.2 107.631591,0.24 108.131591,0.28 C108.201591,0.28 108.271591,0.28 108.341591,0.31 C108.771591,0.43 108.521591,1.09 108.521591,1.52 Z" id="Path"></path>
                    <path d="M122.121591,25.01 L120.711591,25.01 C120.641591,24.94 120.571591,25.04 120.501591,24.8 C118.921591,19.28 117.901591,14.6 116.701591,9.15 L116.671591,9.15 C116.531591,11.93 116.601591,14.74 116.601591,18.12 L116.601591,22.02 C116.601591,24.84 116.811591,25.05 115.691591,25.05 C115.661591,25.05 114.421591,25.16 114.421591,24.8 C114.421591,17.63 114.531591,10.41 114.531591,1.45 C114.531591,1.27 114.501591,1.06 114.531591,0.92 L114.531591,0.85 C114.531591,0.64 114.561591,0.32 114.851591,0.32 L116.291591,0.32 C116.471591,0.32 116.571591,0.46 116.681591,0.67 C116.861591,1.23 116.961591,1.52 117.031591,1.8 C117.701591,5.39 118.081591,6.55 118.681591,9.15 L119.451591,12.67 C119.691591,13.83 120.051591,14.99 120.331591,16.15 L120.401591,16.15 C120.471591,12.25 120.331591,8.31 120.401591,3.84 C120.401591,2.93 120.371591,1.73 120.371591,0.67 C120.371591,0.35 120.621591,0.32 120.861591,0.32 C122.551591,0.32 122.581591,0.29 122.581591,0.6 L122.581591,3.48 C122.581591,5.45 122.511591,7.46 122.511591,9.42 C122.511591,11.95 122.471591,14.49 122.401591,17.09 L122.401591,23.98 C122.401591,24.09 122.431591,24.23 122.401591,24.33 C122.401591,24.59 122.371591,25.01 122.121591,25.01 Z" id="Path"></path>
                    <path d="M130.211591,27.65 C130.211591,27.65 130.101591,27.86 129.891591,27.86 L129.191591,27.86 C129.121591,27.86 129.051591,27.83 129.021591,27.75 C128.911591,27.54 128.951591,25.39 128.951591,24.72 L128.911591,23.52 L128.911591,22.96 C128.911591,22.85 129.021591,22.75 129.121591,22.75 L129.581591,22.75 L130.851591,22.75 C130.961591,22.75 131.061591,22.86 131.061591,22.96 L131.101591,23.63 L131.101591,24.51 C131.101591,24.65 131.101591,24.79 131.061591,24.93 L130.211591,27.65 Z" id="Path"></path>
                    <path d="M153.771591,21.35 C153.771591,23.95 152.751591,24.69 150.961591,25.08 C150.641591,25.15 150.291591,25.15 149.981591,25.15 C148.571591,25.15 146.291591,24.48 146.291591,22.27 C146.261591,17.84 146.221591,16.12 146.221591,14.36 L146.221591,4.13 C146.221591,1.49 147.241591,0.01 150.021591,0.01 C151.811591,0.01 153.711591,0.82 153.711591,3.49 L153.711591,7.43 C153.711591,7.71 153.671591,7.99 152.761591,8.06 C151.671591,8.06 151.561591,7.85 151.561591,7.71 C151.561591,6.69 151.521591,5.78 151.521591,4.76 C151.521591,4.34 151.561591,3.88 151.561591,3.35 C151.561591,2.26 150.821591,2.08 150.051591,2.08 C148.821591,2.08 148.471591,2.5 148.431591,3.77 L148.431591,5.18 L148.461591,12.04 L148.431591,17.11 C148.431591,18.31 148.461591,19.47 148.461591,20.66 L148.461591,21.86 C148.461591,22.78 149.131591,23.23 149.971591,23.23 C150.951591,23.23 151.551591,22.49 151.551591,21.37 C151.551591,20.07 151.661591,18.73 151.661591,17.4 C151.661591,17.29 151.771591,17.22 151.871591,17.19 L152.221591,17.12 C152.431591,17.08 153.281591,17.08 153.631591,17.15 C153.741591,17.15 153.841591,17.29 153.841591,17.4 C153.841591,18.68 153.771591,19.98 153.771591,21.35 Z" id="Path"></path>
                    <path d="M167.651591,3.49 C167.681591,7.99 167.651591,11.3 167.651591,13.73 C167.681591,19.75 167.541591,20.55 167.541591,21.36 C167.541591,23.96 166.521591,24.7 164.731591,25.09 C164.411591,25.16 164.061591,25.16 163.751591,25.16 C162.341591,25.16 160.061591,24.6 160.061591,22.38 C160.021591,17.95 159.991591,16.12 159.991591,14.36 L159.991591,4.13 C159.991591,1.49 161.011591,0.00990877325 163.791591,0.00990877325 C165.581591,7.32018612e-14 167.651591,0.81 167.651591,3.49 Z M165.441591,14.32 C165.441591,11.19 165.481591,8.02 165.481591,4.75 C165.481591,4.33 165.481591,3.87 165.481591,3.34 C165.481591,2.25 164.601591,2.07 163.831591,2.07 C162.601591,2.07 162.251591,2.49 162.211591,3.76 L162.211591,5.17 L162.251591,12.03 L162.211591,17.1 C162.211591,18.3 162.251591,19.56 162.251591,20.76 L162.251591,21.96 C162.251591,22.87 162.921591,23.23 163.761591,23.23 C164.741591,23.23 165.341591,22.49 165.341591,21.37 L165.441591,14.32 Z" id="Shape"></path>
                </g>
                <path d="M450.843633,345.85253 C450.103633,371.74253 440.943633,388.75253 419.533633,401.02253 C368.203633,430.44253 318.033633,462.20253 265.043633,488.24253 C248.473633,496.38253 221.083633,496.07253 204.393633,487.90253 C150.523633,461.49253 99.2836327,429.69253 47.1136327,399.82253 C26.6236327,388.09253 16.7036327,370.44253 16.9103681,346.51253 C17.4336327,287.26253 17.8336327,228.00253 17.3836327,168.75253 C17.2036327,144.35253 28.0936327,127.59253 48.3736327,116.05253 C98.9636327,87.2725303 149.843633,59.0125303 200.293633,29.9925303 C224.553633,16.0325303 247.163633,15.5825303 271.813633,30.3525303 C318.513633,58.3425303 365.863633,85.3125303 413.763633,111.19253 C439.563633,125.13253 451.173633,143.01253 451.293633,173.85253 C451.413633,204.56253 451.663633,317.27253 450.843633,345.85253 Z" id="Path" stroke="#FFFFFF" stroke-width="0.75"></path>
                <g id="Group" transform="translate(148.343633, 107.952530)" fill="#FFFFFF" fill-rule="nonzero">
                    <path d="M78.4,119.37 C69.44,90.27 55.65,58.2 36.34,21.62 C39.58,34.5 49.45,74.28 52.58,85.21 L47.41,79.16 C43.37,65.06 34.94,28.47 30.68,10.95 L28.02,0 L33.4,9.9 C55.72,50.98 71.36,86.5 81.21,118.5 L78.4,119.37 Z" id="Path"></path>
                    <path d="M80.66,138.01 C78.79,138.01 76.68,137.39 74.47,136.17 L74.26,136.05 L74.1,135.87 C55.34,115.16 33.01,83.42 5.86,38.82 L0,29.19 L8.13,37 C41.86,69.37 67.54,98.48 86.64,125.98 L86.8,126.22 L86.86,126.5 C88.3,132.93 86.09,135.71 84.65,136.79 C83.53,137.6 82.18,138.01 80.66,138.01 Z M75.18,132.69 C75.89,133.48 76.77,134.1 77.76,134.48 C79.89,135.29 81.47,134.7 82.62,133.84 C83.8,132.95 84.57,131.68 84.33,129.19 C84.23,128.14 83.85,127.12 83.24,126.25 C66,101.65 43.43,75.73 14.49,47.28 C38.29,85.68 58.2,113.71 75.18,132.69 Z" id="Shape"></path>
                </g>
                <g id="Group" transform="translate(233.087532, 107.962530)" fill="#FFFFFF" fill-rule="nonzero">
                    <path d="M8.72610042,119.36 L5.91610042,118.5 C15.7661004,86.5 31.4061004,50.98 53.7261004,9.9 L59.1061004,-1.42108547e-14 L56.4461004,10.95 C52.1861004,28.47 41.8261004,65.94 37.7861004,80.04 L34.0061004,83.6 C31.8561004,91.11 42.8661004,53.1 50.7761004,21.62 C31.4761004,58.19 17.6861004,90.26 8.72610042,119.36 Z" id="Path"></path>
                    <path d="M6.01610042,137.78 C4.52610042,137.78 3.30610042,137.41 2.34610042,136.68 C-0.303899585,134.65 -0.203899585,130.46 0.246100415,126.64 L0.286100415,126.28 L0.496100415,125.98 C19.5861004,98.48 45.2661004,69.38 79.0061004,37 L87.1361004,29.19 L81.2761004,38.82 C54.1161004,83.42 31.7961004,115.16 13.0361004,135.87 L12.8061004,136.12 L12.4961004,136.25 C9.92610042,137.27 7.77610042,137.78 6.01610042,137.78 Z M4.09610042,125.93 C3.39610042,126.92 3.01610042,128.08 2.95610042,129.29 C2.85610042,131.39 3.62610042,132.72 4.71610042,133.55 C5.61610042,134.24 6.74610042,135.02 9.13610042,134.31 C10.3461004,133.95 11.4361004,133.25 12.2761004,132.31 C29.1761004,113.33 48.9961004,85.42 72.6361004,47.26 C43.8161004,75.6 21.3161004,101.43 4.09610042,125.93 Z" id="Shape"></path>
                </g>
                <polygon id="Path" fill="#FFFFFF" fill-rule="nonzero" points="232.813633 57.1725303 234.273633 50.8325303 235.743633 57.1725303"></polygon>
                <rect id="Rectangle" fill="#FFFFFF" fill-rule="nonzero" x="232.813633" y="91.1625303" width="2.94" height="143.32"></rect>
                <path d="M234.273633,92.6325303 C230.083633,92.6325303 226.673633,89.2225303 226.673633,85.0325303 L226.673633,63.3025303 C226.673633,59.1125303 230.083633,55.7025303 234.273633,55.7025303 C238.463633,55.7025303 241.873633,59.1125303 241.873633,63.3025303 L241.873633,85.0325303 C241.873633,89.2225303 238.463633,92.6325303 234.273633,92.6325303 Z M234.273633,58.6425303 C231.703633,58.6425303 229.613633,60.7325303 229.613633,63.3025303 L229.613633,85.0325303 C229.613633,87.6025303 231.703633,89.6925303 234.273633,89.6925303 C236.843633,89.6925303 238.933668,87.6025303 238.933668,85.0325303 L238.933668,63.3025303 C238.943633,60.7325303 236.853633,58.6425303 234.273633,58.6425303 Z" id="Shape" fill="#FFFFFF" fill-rule="nonzero"></path>
                <g id="Group" transform="translate(185.780485, 78.222530)" fill="#FFFFFF" fill-rule="nonzero">
                    <g transform="translate(46.695353, -0.000000)">
                        <polygon id="Path" points="42.867795 4.97 45.797795 0 45.697795 5.77"></polygon>
                        <rect id="Rectangle" transform="translate(18.282610, 97.747087) rotate(-74.282055) translate(-18.282610, -97.747087) " x="-43.9819403" y="96.2770976" width="124.529102" height="2.93997879"></rect>
                        <path d="M36.637795,39.76 C35.937795,39.76 35.227795,39.66 34.517795,39.46 C32.567795,38.89 30.957795,37.6 29.977795,35.82 C28.997795,34.04 28.777795,31.99 29.337795,30.04 L35.397795,9.18 C35.967795,7.23 37.257795,5.62 39.037795,4.64 C40.817795,3.66 42.867795,3.44 44.817795,4 C48.837795,5.17 51.167795,9.39 49.997795,13.42 L43.937795,34.28 C42.967795,37.6 39.927795,39.76 36.637795,39.76 Z M42.707795,6.63 C40.687795,6.63 38.817795,7.96 38.227795,9.99 L32.167795,30.85 C31.817795,32.05 31.957795,33.31 32.557795,34.4 C33.157795,35.49 34.147795,36.28 35.347795,36.63 C37.817795,37.35 40.407795,35.92 41.127795,33.45 L47.187795,12.59 C47.907795,10.12 46.477795,7.53 44.007795,6.81 C43.567795,6.69 43.137795,6.63 42.707795,6.63 Z" id="Shape"></path>
                    </g>
                    <g transform="translate(0.000000, -0.000000)">
                        <polygon id="Path" points="4.60314808 5.77 4.50314808 0 7.42314808 4.97"></polygon>
                        <rect id="Rectangle" transform="translate(32.029085, 97.743915) rotate(-15.723461) translate(-32.029085, -97.743915) " x="30.5590559" y="35.4776772" width="2.94005845" height="124.532476"></rect>
                        <path d="M13.6631481,39.76 C10.3731481,39.76 7.32314808,37.6 6.36314808,34.28 L0.303148079,13.42 C-0.866851921,9.4 1.45314808,5.17 5.48314808,4 C9.50314808,2.83 13.7331481,5.15 14.9031481,9.18 L20.9631481,30.04 C22.1331481,34.06 19.8131481,38.29 15.7831481,39.46 L15.7831481,39.46 C15.0731481,39.66 14.3631481,39.76 13.6631481,39.76 Z M7.59314808,6.63 C7.16314808,6.63 6.72314808,6.69 6.29314808,6.82 C3.82314808,7.54 2.40314808,10.13 3.11314808,12.6 L9.17314808,33.46 C9.89314808,35.93 12.4831481,37.36 14.9531481,36.64 L14.9531481,36.64 C17.4231481,35.92 18.8431481,33.33 18.1331481,30.86 L12.0731481,10 C11.4831481,7.96 9.61314808,6.63 7.59314808,6.63 Z" id="Shape"></path>
                    </g>
                </g>
                <path d="M225.173633,236.81253 L197.683633,199.48253 L227.473633,235.00253 C227.993633,235.62253 227.913633,236.55253 227.293633,237.07253 C226.673633,237.59253 225.743633,237.51253 225.223633,236.89253 C225.213633,236.86253 225.193633,236.83253 225.173633,236.81253 Z" id="Path" fill="#FFFFFF" fill-rule="nonzero"></path>
                <path d="M241.073633,235.00253 L270.863633,199.48253 L243.373633,236.81253 C242.893633,237.46253 241.973633,237.60253 241.323633,237.12253 C240.673633,236.64253 240.533633,235.72253 241.013633,235.07253 C241.033633,235.04253 241.053633,235.02253 241.073633,235.00253 Z" id="Path" fill="#FFFFFF" fill-rule="nonzero"></path>
                <g id="Group" transform="translate(172.093633, 194.742530)" fill="#FFFFFF" fill-rule="nonzero">
                    <g transform="translate(74.249263, 0.000000)" id="Path">
                        <path d="M1.23073735,44.15 L50.5907374,0 L6.44073735,49.36 C5.08073735,50.88 2.75073735,51.01 1.23073735,49.65 C-0.289262649,48.29 -0.419262649,45.96 0.940737351,44.44 C1.03073735,44.34 1.13073735,44.24 1.23073735,44.15 Z"></path>
                        <path d="M7.11073735,44.2 L42.1707374,27.85 L10.8507374,50.55 C9.19073735,51.75 6.88073735,51.38 5.68073735,49.72 C4.48073735,48.06 4.85073735,45.75 6.51073735,44.55 C6.70073735,44.42 6.91073735,44.3 7.11073735,44.2 Z"></path>
                    </g>
                    <g transform="translate(0.000000, 0.410000)" id="Path">
                        <path d="M44.15,49.36 L-2.84217094e-14,0 L49.36,44.15 C50.88,45.51 51.01,47.84 49.65,49.36 C48.29,50.88 45.96,51.01 44.44,49.65 C44.34,49.56 44.24,49.46 44.15,49.36 Z"></path>
                        <path d="M38.02,48.97 L6.7,26.27 L41.76,42.62 C43.61,43.48 44.42,45.69 43.55,47.54 C42.69,49.39 40.48,50.2 38.63,49.33 C38.42,49.23 38.2,49.1 38.02,48.97 Z"></path>
                    </g>
                </g>
                <path d="M238.343633,243.23253 C218.193633,243.24253 198.033633,243.34253 177.883633,243.62253 C157.733633,243.88253 137.573633,244.25253 117.423633,244.98253 C137.573633,245.70253 157.733633,246.08253 177.883633,246.34253 C198.033633,246.62253 218.193633,246.72253 238.343633,246.73253 C258.493633,246.73253 278.653633,246.62253 298.803633,246.35253 C318.953633,246.09253 339.113633,245.71253 359.263633,244.99253 C339.113633,244.26253 318.953633,243.88253 298.803633,243.63253 C278.653633,243.33253 258.493633,243.23253 238.343633,243.23253 Z" id="Path" fill="#FFFFFF" fill-rule="nonzero"></path>
                <g id="Group" transform="translate(52.253633, 281.086326)" fill="#FFFFFF" fill-rule="nonzero">
                    <path d="M0,1.54620395 C0,0.446203949 0.15,-0.283796051 1.37,0.106203949 C7.18,1.96620395 13,3.73620395 18.85,5.40620395 C19.77,5.66620395 20.85,5.84620395 24.4,8.13620395 C29.04,11.6062039 32.17,18.5062039 32.2,23.5062039 C32.22,26.8062039 32.4,30.1262039 32.42,34.1362039 C32.43,35.3762039 32.44,36.6162039 32.44,37.8562039 C32.47,42.8762039 32.98,50.5162039 31.29,53.7162039 C30.06,55.9662039 27.59,58.9662039 25.26,58.6562039 C30.4,61.8362039 32.77,66.5162039 32.8,72.0962039 C32.82,75.1062039 32.69,78.9562039 32.71,82.9662039 C32.74,87.8362039 32.77,92.7062039 32.8,97.5762039 C32.83,102.446204 33.03,109.176204 31.77,109.176204 C30.83,109.606204 27.7,109.456204 26.92,109.456204 C26.76,109.456204 23.01,109.746204 23,108.426204 C22.99,105.636204 23.12,99.9062039 23.09,94.9162039 C22.89,86.2462039 22.71,80.7962039 22.69,75.0562039 C22.67,71.3762039 22.67,70.6462039 22.51,69.8962039 C22.49,65.2062039 18.58,61.0362039 13.16,60.2662039 C12.07,60.1162039 11.14,60.1362039 9.75,59.7962039 C9.78,71.8262039 9.64,79.7362039 9.65,85.5262039 C9.66,88.5762039 9.82,90.4062039 9.82,91.7762039 C9.83,97.4062039 9.69,102.126204 9.69,104.566204 C9.69,105.786204 9.85,106.396204 9.85,106.396204 C9.86,109.596204 8.6,109.596204 5.32,109.596204 C1.88,109.596204 0,110.376204 0,105.996204 C0,74.8262039 0,43.5062039 0,1.54620395 Z M9.88,43.8362039 C9.89,46.2762039 10.05,49.1862039 9.74,51.4262039 C11.29,51.5262039 12.06,51.6562039 13.46,51.8762039 C21.98,53.2162039 22.13,49.6862039 22.88,44.5462039 C22.86,40.4362039 22.69,35.8462039 22.63,24.5362039 C22.6,17.9362039 19.81,14.7362039 15.19,13.4962039 C13.65,13.0862039 12.27,12.8562039 10.88,12.4762039 C10.47,12.3662039 10.06,12.2462039 9.65,12.1362039 C9.87,42.1662039 9.88,43.0662039 9.88,43.8362039 Z" id="Shape"></path>
                    <path d="M55.85,104.746204 C55.86,105.826204 56.02,106.506204 56.03,107.586204 C56.05,109.346204 54.01,109.616204 52.76,109.616204 C49.94,109.616204 47.91,109.886204 46.81,109.196204 C45.87,108.636204 46.01,107.536204 46,106.006204 C45.91,94.3662039 45.67,82.7162039 45.56,68.5662039 C45.93,56.4162039 45.53,44.0562039 45.43,30.8862039 C45.4,26.5862039 45.52,22.8762039 45.49,18.3062039 C45.48,16.5962039 45.46,14.8862039 45.45,13.1762039 C45.44,12.0662039 48.7,12.8362039 51.04,13.3662039 C52.28,13.6562039 55.09,14.4062039 55.1,15.3562039 C55.11,15.9862039 55.11,16.6162039 55.12,17.2562039 C55.12,17.2562039 55.01,22.9162039 55.09,31.7162039 C55.19,42.9562039 55.13,54.3162039 55.39,66.3962039 C55.4,70.0662039 55.6,75.0862039 55.85,104.746204 Z" id="Path"></path>
                    <path d="M104.29,23.9062039 C104.29,24.3962039 103.83,25.3262039 103.84,25.9362039 C102.05,36.7962039 101.45,39.8462039 101.46,40.8262039 C100.27,47.6162039 99.23,54.7162039 98.2,62.2162039 C96.43,74.0262039 94.66,85.6462039 91.65,98.4162039 C91.05,101.426204 90,105.576204 90.01,107.226204 C90.04,110.126204 87.84,109.756204 85.96,109.746204 C84.39,109.746204 82.83,109.496204 81.41,109.236204 C81.25,108.976204 79.98,106.666204 79.95,104.086204 C79.94,103.186204 79.46,102.146204 79.29,100.986204 C78.95,98.1462039 78.61,94.9162039 77.96,92.6962039 C73.35,69.0262039 69.52,44.7262039 65.3699734,17.4962039 C65.36,16.1762039 68.17,16.7362039 70.05,17.0962039 C71.15,17.7062039 75.21,17.8162039 75.23,20.0162039 C75.27,24.1762039 76.73,30.2362039 77.4,34.1962039 C80.68,49.8762039 81.92,65.3562039 85.05,81.0862039 C85.05,81.4662039 85.06,81.8462039 85.22,82.2362039 C85.27,82.2362039 85.32,82.2462039 85.38,82.2462039 C88.19,64.8662039 89.74,47.2662039 94.08,25.2262039 C94.53,22.6562039 93.57,21.1662039 100.81,22.1962039 C101.6,22.3162039 104.28,22.6762039 104.29,23.9062039 Z" id="Path"></path>
                    <path d="M141.3,65.2962039 C141.31,66.6362039 141.32,67.9662039 141.32,69.3062039 C141.33,70.2462039 141.17,71.1862039 139.91,71.1462039 C135.03,70.9862039 130.31,70.5662039 125.28,70.5762039 C124.73,81.5762039 124.64,90.2162039 125.05,102.446204 C128.5,102.476204 131.63,102.626204 139.63,102.676204 C142.14,102.696204 141.36,103.986204 141.37,105.876204 C141.38,107.996204 141.86,109.536204 138.73,109.536204 C128.55,109.536204 125.42,109.416204 117.75,109.406204 C116.03,109.406204 115.4,109.286204 115.39,108.316204 C115.1,111.586204 115.28,76.0362039 115.23,70.7062039 C115.02,64.5062039 115.13,58.4462039 115.07,51.5362039 C115.07,45.2762039 115.07,39.0062039 115.07,32.7462039 C115.05,30.8862039 115.04,29.0262039 115.02,27.1662039 C115.01,26.0762039 114.85,25.3262039 115.32,24.8962039 C115.63,24.6862039 116.1,24.4962039 117.21,24.6262039 C123.68,25.3262039 130.16,25.9562039 139.18,26.6162039 C141.08,26.7562039 140.46,29.0662039 140.47,30.4862039 C140.48,31.5462039 140.49,33.3162039 139.38,33.2462039 C137.64,33.1362039 136.06,33.0262039 134.32,32.8962039 C134.48,32.9262039 125.94,32.0062039 125.16,32.2762039 C125,32.3862039 124.85,32.4862039 124.85,32.8462039 C124.88,36.4462039 125.07,41.0062039 125.02,56.0962039 C125.05,59.8162039 125.23,63.6562039 125.23,63.4162039 C129.48,63.6362039 133.73,63.9662039 140.34,64.2262039 C140.98,64.2262039 141.29,64.9462039 141.3,65.2962039 Z" id="Path"></path>
                    <path d="M152.17,28.9062039 C152.17,28.0862039 152.32,27.5062039 153.59,27.5762039 C159.61,27.8562039 165.63,28.0462039 171.66,28.1462039 C172.61,28.1562039 173.72,28.0662039 177.37,29.1362039 C182.13,30.9062039 185.29,35.8662039 185.29,39.9262039 C185.29,42.5962039 185.45,45.2662039 185.44,48.5062039 C185.44,49.5162039 185.44,50.5162039 185.44,51.5262039 C185.44,55.5862039 185.91,61.7362039 184.17,64.5262039 C182.91,66.5062039 180.39,69.1762039 178.02,69.1662039 C183.22,71.1462039 185.58,74.7262039 185.58,79.2562039 C185.58,81.6962039 185.42,84.8262039 185.42,88.0762039 C185.42,92.0162039 185.42,95.9662039 185.41,99.9062039 C185.41,103.846204 185.56,109.306204 184.31,109.306204 C183.37,109.656204 180.24,109.536204 179.46,109.536204 C179.3,109.536204 175.55,109.766204 175.54,108.726204 C175.54,106.516204 175.69,101.996204 175.69,98.0562039 C175.53,91.2062039 175.37,86.9162039 175.36,82.3962039 C175.36,79.4962039 175.36,78.9162039 175.2,78.3362039 C175.2,74.6262039 171.26,71.7062039 165.74,71.6362039 C164.64,71.6262039 163.69,71.7262039 162.28,71.5862039 C162.31,80.7862039 162.17,86.8362039 162.18,91.2662039 C162.19,93.5962039 162.35,94.9962039 162.35,96.0362039 C162.36,100.346204 162.22,103.956204 162.22,105.816204 C162.22,106.746204 162.38,107.216204 162.38,107.216204 C162.39,109.656204 161.13,109.656204 157.85,109.656204 C154.4,109.656204 152.53,110.246204 152.51,106.966204 C152.4,83.6662039 152.3,60.2662039 152.17,28.9062039 Z M162.39,59.3562039 C162.4,61.2162039 162.56,63.4362039 162.25,65.1762039 C163.83,65.0862039 164.61,65.0962039 166.03,65.1162039 C174.7,65.2262039 174.86,62.4162039 175.64,58.2462039 C175.64,54.9962039 175.48,51.3962039 175.47,42.4662039 C175.47,37.2462039 172.61,35.2562039 167.86,35.1562039 C166.28,35.1262039 164.85,35.2062039 163.43,35.1662039 C163.01,35.1562039 162.59,35.1462039 162.16,35.1262039 C162.39,58.0762039 162.39,58.7662039 162.39,59.3562039 Z" id="Shape"></path>
                    <path d="M231.04,98.3362039 C230.99,105.966204 224.86,109.416204 214.36,109.526204 C212.06,109.526204 209.77,109.526204 207.47,109.526204 C205.75,109.526204 202.3,109.526204 200.27,109.526204 C199.96,109.526204 198.08,109.526204 198.08,107.896204 C198.09,104.636204 198.25,103.476204 198.26,99.7562039 C198.32,77.7662039 198.21,55.7862039 198.28,29.3762039 C198.28,28.5662039 198.44,27.9762039 199.71,27.9362039 C205.73,27.7462039 211.75,27.4662039 217.77,27.0962039 C218.72,27.0365189 219.83,26.8562039 223.46,27.6662039 C228.2,29.0962039 231.32,33.9462039 231.29,38.1262039 C231.27,40.8662039 231.41,43.5862039 231.39,46.9262039 C231.38,47.9562039 231.38,48.9862039 231.37,50.0162039 C231.34,54.1762039 231.77,60.4762039 230.02,63.4062039 C228.75,65.4862039 226.21,68.3162039 223.85,68.3962039 C229.03,70.2062039 231.37,73.8062039 231.33,78.4562039 C231.3,83.6962039 231.08,92.0262039 231.04,98.3362039 Z M208.13,102.866204 C211.27,102.856204 212.36,102.966204 213.46,102.956204 C216.59,102.946204 221.14,102.686204 221.16,99.8462039 C221.17,98.5062039 221.18,97.1762039 221.18,95.8362039 C221.21,91.2362039 221.07,86.7562039 221.1,81.9262039 C221.12,78.9762039 221.12,78.3862039 220.97,77.8062039 C220.99,74.0262039 217.07,71.2162039 211.56,71.3462039 C210.46,71.3762039 209.51,71.5162039 208.1,71.4262039 C207.98,99.0162039 207.19,101.116204 208.13,102.866204 Z M208.3,59.1562039 C208.29,61.0262039 208.44,63.2462039 208.12,65.0062039 C209.7,64.8462039 210.48,64.8262039 211.9,64.7862039 C220.57,64.5262039 220.74,61.6662039 221.55,57.3862039 C221.57,54.0862039 221.43,50.4362039 221.48,41.3562039 C221.51,36.0462039 218.68,34.2262039 213.93,34.4762039 C212.35,34.5562039 210.92,34.7362039 209.5,34.8062039 C209.08,34.8262039 208.66,34.8462039 208.23,34.8562039 C208.31,57.8762039 208.3,58.5762039 208.3,59.1562039 Z" id="Shape"></path>
                    <path d="M270.400234,62.3762039 C270.39,63.7962039 270.37,65.2262039 270.36,66.6462039 C270.35,67.6562039 270.18,68.6662039 268.93,68.7562039 C264.07,69.0962039 259.36,69.1562039 254.33,69.6962039 C253.6,81.0062039 253.37,89.8062039 253.57,102.286204 C257.02,102.246204 260.15,102.336204 268.14,102.236204 C270.65,102.206204 269.85,103.596204 269.83,105.606204 C269.81,107.866204 270.26,109.506204 267.13,109.506204 C256.95,109.506204 253.82,109.386204 246.15,109.396204 C244.43,109.396204 243.8,109.276204 243.81,108.306204 C243.47,111.576204 244.23,76.1762039 244.27,70.8462039 C244.16,64.6962039 244.37,58.6462039 244.42,51.7562039 C244.52,45.5062039 244.63,39.2662039 244.73,33.0162039 C244.75,31.1662039 244.76,29.3062039 244.78,27.4562039 C244.79,26.3662039 244.64,25.6562039 245.11,25.1262039 C245.43,24.8462039 245.9,24.5562039 247.01,24.4362039 C253.48,23.7062039 259.94,22.9062039 268.9,21.5662039 C270.79,21.2762039 270.13,23.8862039 270.12,25.3962039 C270.11,26.5262039 270.09,28.4062039 268.99,28.5662039 C267.26,28.8062039 265.69,29.0162039 263.96,29.2462039 C264.12,29.2362039 255.62,30.0562039 254.83,30.4962039 C254.67,30.6362039 254.51,30.7762039 254.51,31.1462039 C254.48,34.8162039 254.59,39.4562039 254.3,54.9062039 C254.27,58.7062039 254.39,62.6062039 254.39,62.3662039 C258.63,62.0662039 262.87,61.8862039 269.46,61.3362039 C270.1,61.2762039 270.41,62.0062039 270.400234,62.3762039 Z" id="Path"></path>
                    <path d="M315.21,109.616204 C313.12,109.616204 311.03,109.616204 308.95,109.616204 C308.64,109.346204 308.32,109.756204 308.02,108.806204 C301.16,87.5562039 296.79,70.2862039 291.66,50.6162039 C291.61,50.6262039 291.56,50.6262039 291.5,50.6362039 C290.78,61.0362039 290.99,71.4562039 290.87,84.0062039 C290.82,88.8462039 290.78,93.6762039 290.73,98.5162039 C290.63,108.976204 291.56,109.756204 286.55,109.756204 C286.39,109.756204 280.91,110.136204 280.919986,108.856204 C281.17,82.7062039 281.89,56.3762039 282.21,23.6362039 C282.22,22.9962039 282.07,22.2562039 282.23,21.7062039 C282.23,21.6162039 282.23,21.5362039 282.23,21.4462039 C282.24,20.6762039 282.4,19.4962039 283.66,19.2762039 C285.8,18.8962039 287.94,18.5062039 290.08,18.1062039 C290.86,17.9562039 291.33,18.3962039 291.79,19.0862039 C292.55,21.0362039 293.01,21.9962039 293.31,22.9862039 C296.16,35.8562039 297.83,39.9862039 300.4,49.4662039 C301.51,53.7562039 302.61,58.0862039 303.72,62.4362039 C304.78,66.7562039 306.3,71.0562039 307.51,75.4362039 C307.61,75.4262039 307.72,75.4162039 307.82,75.4162039 C308.26,60.3162039 307.76,45.2162039 308.22,27.9462039 C308.25,24.4162039 308.13,19.8362039 308.17,15.7762039 C308.18,14.5562039 309.27,14.1762039 310.36,13.9362039 C317.83,12.2462039 317.98,12.0262039 317.970352,13.2862039 C317.94,17.0762039 317.91,20.8762039 317.88,24.6662039 C317.82,32.4362039 317.45,40.4062039 317.39,48.1662039 C317.31,58.1462039 317.08,68.1562039 316.69,78.4362039 C316.62,87.4862039 316.55,96.5362039 316.48,105.586204 C316.48,106.006204 316.63,106.556204 316.47,106.976204 C316.47,107.956204 316.3,109.616204 315.21,109.616204 Z" id="Path"></path>
                    <path d="M362.65,94.7162039 C362.65,104.796204 356.55,109.336204 346.05,109.446204 C341.35,109.446204 336.65,109.456204 331.96,109.456204 C331.65,109.456204 329.77,109.456204 329.77996,107.456204 C329.8,103.446204 329.97,102.016204 330,97.4262039 C330.16,70.3462039 330.17,43.3062039 330.37,10.8062039 C330.38,9.80620395 330.54,9.04620395 331.77,8.72620395 C350.29,3.71620395 351.31,2.98620395 354.85,3.35620395 C359.44,4.22620395 362.5,10.0262039 362.5,15.5262039 C362.5,19.1262039 362.65,22.6862039 362.65,27.0662039 C362.81,75.4362039 362.65,86.4262039 362.65,94.7162039 Z M352.970027,21.4362039 C352.98,14.5662039 350.23,12.7562039 345.61,13.9962039 C344.07,14.4062039 342.68,14.9162039 341.29,15.2662039 C340.88,15.3762039 340.47,15.4762039 340.06,15.5862039 C340.08,43.9062039 340.08,45.0962039 339.85,61.5662039 C339.69,96.2462039 338.9,98.8962039 339.83,101.086204 C342.96,101.016204 344.05,101.136204 345.15,101.106204 C348.28,101.036204 352.81,100.626204 352.82,96.9662039 C352.82,95.2362039 352.83,93.5162039 352.83,91.7862039 C352.84,85.8462039 352.7,80.0762039 352.71,73.8362039 C352.8,56.3762039 352.89,38.9062039 352.970027,21.4362039 Z" id="Shape"></path>
                </g>
            </g>
        </g>
    </g>
</svg>